<svg width="71" height="29" viewBox="0 0 71 29" fill="none" xmlns="http://www.w3.org/2000/svg">
<path d="M6.66394 21.2921C6.43028 21.2921 5.45666 20.7469 3.74311 19.6565C2.93826 19.1632 2.2762 18.7478 1.75694 18.4103C1.23768 18.0727 0.874202 17.8261 0.666498 17.6703C0.510721 17.5145 0.432832 17.216 0.432832 16.7746C0.432832 16.3073 0.510721 15.9827 0.666498 15.801C0.926128 15.5413 1.95166 14.5937 3.74311 12.958C5.53455 11.3224 6.44326 10.5045 6.46922 10.5045C6.54711 10.5045 6.58605 10.6473 6.58605 10.9329C6.58605 11.3224 6.52115 11.595 6.39133 11.7508C6.28748 11.8806 6.10574 12.1013 5.84611 12.4128C5.58648 12.6984 5.24896 13.0749 4.83355 13.5422C4.47007 13.9576 4.08063 14.399 3.66522 14.8663C3.24981 15.3077 2.80844 15.788 2.34111 16.3073L6.39133 20.2406C6.72885 20.5782 6.89761 20.8378 6.89761 21.0195C6.89761 21.2013 6.81972 21.2921 6.66394 21.2921ZM13.3216 25.8097C11.0369 25.8097 9.89451 25.1736 9.89451 23.9014C9.89451 23.3043 10.219 22.8499 10.8681 22.5384C11.3874 22.2787 11.9845 22.1489 12.6596 22.1489C13.5942 22.1489 15.3987 22.6941 18.0728 23.7846C18.8258 23.1874 19.5527 22.4475 20.2537 21.5648C20.9547 20.682 21.6168 19.6435 22.2399 18.4492C22.7592 17.4366 23.2654 16.4111 23.7587 15.3726C24.252 14.3341 24.7453 13.2956 25.2386 12.257C27.3157 7.97314 29.6913 4.84461 32.3654 2.87142C30.1067 1.88483 27.8089 1.39153 25.4723 1.39153C22.6942 1.39153 20.2667 1.8329 18.1897 2.71564C15.6713 3.78012 13.8149 5.37685 12.6206 7.50581C11.8937 8.80396 11.5302 10.154 11.5302 11.556C11.5302 12.9321 11.9196 14.0744 12.6985 14.9831C13.5293 15.9178 14.6327 16.3851 16.0088 16.3851C17.6964 16.3851 19.2282 15.814 20.6042 14.6716C22.0841 13.5033 22.8241 12.0753 22.8241 10.3877C22.8241 9.50496 22.4736 8.71309 21.7726 8.01209C21.0716 7.33705 20.2537 6.99953 19.3191 6.99953C18.4882 6.99953 17.7353 7.27214 17.0603 7.81737C16.3852 8.41451 16.0477 9.11551 16.0477 9.92037C16.0477 10.5694 16.3852 10.894 17.0603 10.894C17.294 10.894 17.4108 10.9329 17.4108 11.0108C17.4108 11.1406 17.281 11.2055 17.0213 11.2055C16.0867 11.2055 15.6193 10.7771 15.6193 9.92037C15.6193 8.93377 15.9958 8.1419 16.7487 7.54475C17.5017 6.92164 18.3455 6.61009 19.2801 6.61009C20.4744 6.61009 21.461 7.03848 22.2399 7.89525C23.0188 8.70011 23.4082 9.6867 23.4082 10.855C23.4082 12.6205 22.6423 14.0874 21.1105 15.2558C19.7345 16.3202 18.1377 16.8525 16.3203 16.8525C14.5549 16.8525 13.062 16.3202 11.8417 15.2558C10.5695 14.1393 9.93345 12.7114 9.93345 10.9719C9.93345 10.5305 9.97239 10.0761 10.0503 9.60881C10.1541 9.14148 10.2839 8.67414 10.4397 8.20681C11.4263 5.55859 13.3086 3.61137 16.0867 2.36514C18.3974 1.35259 21.1365 0.84631 24.3039 0.84631C27.3676 0.84631 30.2754 1.37855 33.0275 2.44303C34.793 1.24874 36.5195 0.651588 38.2071 0.651588C38.4667 0.651588 38.6095 0.703514 38.6355 0.807366C38.6355 0.807366 38.5446 0.833329 38.3629 0.885254C37.6359 1.01507 37.0518 1.11892 36.6104 1.19681C36.195 1.2747 35.9224 1.33961 35.7926 1.39153C35.3772 1.49538 34.9617 1.65116 34.5463 1.85887C34.1569 2.06657 33.7804 2.31322 33.417 2.59881C38.5836 4.7797 41.1669 8.03805 41.1669 12.3739C41.1669 12.7893 41.1409 13.2047 41.089 13.6201C41.0371 14.0095 40.9592 14.412 40.8553 14.8274C39.9986 18.4622 38.0384 21.2013 34.9747 23.0446C32.2746 24.6543 28.9254 25.4592 24.9271 25.4592C22.4606 25.4592 20.3835 25.1347 18.6959 24.4856C17.0343 25.3683 15.2429 25.8097 13.3216 25.8097ZM24.3039 25.1476C28.3282 25.1476 31.7294 24.0702 34.5074 21.9153C37.5191 19.6046 39.0249 16.476 39.0249 12.5296H39.0639C39.0639 8.27172 36.9869 5.1302 32.8328 3.10509C31.0673 4.76672 29.4187 7.68755 27.8868 11.8676C25.654 17.9948 22.7462 22.11 19.1633 24.213C20.8509 24.8361 22.5644 25.1476 24.3039 25.1476ZM13.4384 25.4981C14.9183 25.4981 16.3203 25.0308 17.6445 24.0961C15.4376 23.2394 13.8019 22.811 12.7374 22.811C11.3095 22.811 10.5955 23.2783 10.5955 24.213C10.5955 25.0698 11.5432 25.4981 13.4384 25.4981ZM49.7861 28.5748C49.6822 28.5228 49.5784 28.4839 49.4745 28.4579C49.3707 28.432 49.2538 28.393 49.124 28.3411C47.748 27.8738 46.7614 27.1338 46.1643 26.1213C44.0353 25.8097 42.3217 25.0438 41.0236 23.8235C39.6735 22.4994 38.9985 20.7729 38.9985 18.6439C38.9985 15.788 40.037 13.3215 42.114 11.2445C44.1651 9.1934 46.6316 8.16786 49.5135 8.16786C51.5386 8.16786 53.1353 8.70011 54.3036 9.76459C54.8748 9.32322 55.5758 8.778 56.4066 8.12892C57.2634 7.45388 58.25 6.675 59.3664 5.79225V5.05231C59.3664 1.75501 60.1323 0.106366 61.6641 0.106366C62.0276 0.106366 62.3522 0.249162 62.6378 0.534754C62.9493 0.794383 63.1051 1.10594 63.1051 1.46942C63.1051 2.50794 62.0536 3.94888 59.9506 5.79225C60.0025 6.15574 60.1193 6.71394 60.3011 7.46687C60.4828 8.19383 60.7425 9.10253 61.08 10.193C61.6252 12.0104 61.8978 13.5162 61.8978 14.7105C61.8978 18.0857 60.392 20.9027 57.3803 23.1615C54.5763 25.2126 51.4477 26.2381 47.9946 26.2381C47.7869 26.2381 47.5663 26.2251 47.3326 26.1991C47.0989 26.1991 46.8782 26.1862 46.6705 26.1602C47.1898 27.017 47.9817 27.6271 49.0461 27.9906C49.2798 28.0944 49.4486 28.1464 49.5524 28.1464C49.6303 28.1464 49.7861 28.1074 50.0198 28.0295C50.2275 27.9516 50.3703 27.9127 50.4481 27.9127C50.6039 27.9127 50.6818 27.9906 50.6818 28.1464C50.6818 28.432 50.3832 28.5748 49.7861 28.5748ZM59.8727 5.32492C61.794 3.63733 62.7546 2.28725 62.7546 1.2747C62.7546 0.755439 62.4171 0.49581 61.742 0.49581C60.4698 0.49581 59.8338 1.74203 59.8338 4.23448C59.8338 4.41622 59.8338 4.59796 59.8338 4.7797C59.8338 4.93548 59.8467 5.11722 59.8727 5.32492ZM46.359 25.5371C47.9427 25.5371 49.6433 25.0698 51.4607 24.1351C52.2656 23.7197 53.0315 23.2653 53.7584 22.772C54.5113 22.2528 55.2123 21.6816 55.8614 21.0585C56.8221 20.1498 57.4711 19.3319 57.8086 18.605C59.0808 16.1385 59.7169 13.5941 59.7169 10.9719C59.7169 11.1536 59.691 10.855 59.639 10.0761C59.5871 9.29725 59.5092 8.02507 59.4054 6.25959C58.8601 6.67499 58.1851 7.20724 57.3803 7.85631C56.6014 8.47942 55.6797 9.21937 54.6152 10.0761C55.4979 10.9589 55.9393 12.0493 55.9393 13.3475C55.9393 15.087 55.3162 16.5669 54.07 17.7871C52.7978 19.0334 51.2919 19.6565 49.5524 19.6565C48.5658 19.6565 47.748 19.4358 47.0989 18.9944C46.346 20.708 45.9695 22.2008 45.9695 23.473C45.9695 23.8625 46.0085 24.226 46.0864 24.5635C46.1643 24.927 46.2551 25.2515 46.359 25.5371ZM45.9306 25.5371C45.6969 24.9919 45.5801 24.3558 45.5801 23.6288C45.5801 22.2008 45.9695 20.5522 46.7484 18.6829C46.1253 18.0857 45.8138 17.3588 45.8138 16.502C45.8138 16.1904 45.8916 15.8269 46.0474 15.4115C46.2551 14.8663 46.4628 14.5937 46.6705 14.5937C46.7225 14.5937 46.7744 14.6197 46.8263 14.6716C46.7744 14.8274 46.7095 14.9182 46.6316 14.9442H46.6705C46.3071 15.4635 46.1253 16.0087 46.1253 16.5799C46.1253 17.2549 46.372 17.8521 46.8653 18.3713C48.0336 15.7491 50.2924 13.0619 53.6416 10.3098C52.4992 9.24533 51.0583 8.71309 49.3188 8.71309C46.8782 8.71309 44.6584 9.80353 42.6593 11.9844C40.712 14.0874 39.7384 16.3851 39.7384 18.8776C39.7384 20.6171 40.3356 22.1359 41.5299 23.4341C42.127 24.0832 42.7891 24.5765 43.516 24.914C44.243 25.2775 45.0478 25.4852 45.9306 25.5371ZM49.3966 19.3839C50.7986 19.3839 52.0968 18.7478 53.2911 17.4756C54.4854 16.2034 55.0825 14.8793 55.0825 13.5033C55.0825 12.4647 54.7061 11.5041 53.9531 10.6214C52.3434 11.9714 50.9804 13.3345 49.864 14.7105C48.7476 16.0606 47.8778 17.3977 47.2547 18.7218C47.8518 19.1632 48.5658 19.3839 49.3966 19.3839ZM64.1688 21.2921C63.987 21.2921 63.8961 21.2013 63.8961 21.0195C63.8961 20.8638 64.0779 20.6041 64.4414 20.2406L68.4526 16.3073L65.9602 13.5422C65.7785 13.3345 65.5578 13.0878 65.2981 12.8023C65.0645 12.5167 64.7789 12.1662 64.4414 11.7508C64.2856 11.5431 64.2077 11.2704 64.2077 10.9329C64.2077 10.6473 64.2596 10.5045 64.3635 10.5045L64.4414 10.5435L68.18 14.0095C68.4137 14.1913 68.6863 14.4379 68.9979 14.7495C69.3354 15.0351 69.7119 15.3856 70.1273 15.801C70.309 15.9827 70.3999 16.3073 70.3999 16.7746C70.3999 17.216 70.309 17.5145 70.1273 17.6703C69.8157 17.9299 68.8031 18.592 67.0896 19.6565C65.3501 20.7469 64.3765 21.2921 64.1688 21.2921Z" fill="#FCC028"/>
</svg>
