<svg width="57" height="24" viewBox="0 0 57 24" fill="none" xmlns="http://www.w3.org/2000/svg">
<path d="M5.06279 17.7232C4.87586 17.7232 4.09697 17.287 2.72613 16.4147C2.08225 16.02 1.5526 15.6877 1.13719 15.4177C0.721787 15.1477 0.431002 14.9504 0.264839 14.8257C0.140217 14.7011 0.0779059 14.4623 0.0779059 14.1092C0.0779059 13.7353 0.140217 13.4757 0.264839 13.3303C0.472543 13.1226 1.29297 12.3644 2.72613 11.0559C4.15928 9.74738 4.88625 9.09312 4.90702 9.09312C4.96933 9.09312 5.00048 9.20735 5.00048 9.43583C5.00048 9.74738 4.94856 9.96547 4.84471 10.0901C4.76162 10.1939 4.61623 10.3705 4.40853 10.6197C4.20082 10.8482 3.93081 11.1494 3.59848 11.5232C3.3077 11.8556 2.99614 12.2087 2.66382 12.5825C2.33149 12.9356 1.97839 13.3199 1.60453 13.7353L4.84471 16.882C5.11472 17.152 5.24973 17.3597 5.24973 17.5051C5.24973 17.6505 5.18742 17.7232 5.06279 17.7232ZM10.3889 21.3372C8.56114 21.3372 7.64724 20.8284 7.64724 19.8106C7.64724 19.3329 7.90687 18.9694 8.42613 18.7202C8.84154 18.5125 9.31926 18.4086 9.85929 18.4086C10.607 18.4086 12.0506 18.8448 14.1899 19.7172C14.7923 19.2394 15.3738 18.6475 15.9346 17.9413C16.4954 17.2351 17.0251 16.4043 17.5236 15.4488C17.939 14.6388 18.344 13.8184 18.7386 12.9876C19.1333 12.1567 19.5279 11.3259 19.9225 10.4951C21.5842 7.068 23.4847 4.56517 25.624 2.98663C23.817 2.19735 21.9788 1.80272 20.1095 1.80272C17.887 1.80272 15.945 2.15581 14.2834 2.862C12.2687 3.71359 10.7836 4.99097 9.82813 6.69414C9.24656 7.73266 8.95578 8.81272 8.95578 9.93432C8.95578 11.0351 9.26733 11.949 9.89044 12.676C10.5551 13.4237 11.4378 13.7976 12.5387 13.7976C13.8887 13.7976 15.1142 13.3407 16.215 12.4268C17.3989 11.4921 17.9909 10.3497 17.9909 8.99965C17.9909 8.29346 17.7105 7.65996 17.1497 7.09916C16.5889 6.55913 15.9346 6.28912 15.1869 6.28912C14.5222 6.28912 13.9199 6.5072 13.3799 6.94338C12.8398 7.4211 12.5698 7.9819 12.5698 8.62578C12.5698 9.14504 12.8398 9.40467 13.3799 9.40467C13.5668 9.40467 13.6603 9.43583 13.6603 9.49814C13.6603 9.60199 13.5564 9.65392 13.3487 9.65392C12.601 9.65392 12.2271 9.3112 12.2271 8.62578C12.2271 7.83651 12.5283 7.20301 13.1306 6.72529C13.733 6.2268 14.408 5.97756 15.1557 5.97756C16.1112 5.97756 16.9004 6.32027 17.5236 7.00569C18.1467 7.64957 18.4582 8.43885 18.4582 9.37352C18.4582 10.7859 17.8455 11.9594 16.62 12.8941C15.5192 13.7457 14.2418 14.1715 12.7879 14.1715C11.3755 14.1715 10.1812 13.7457 9.20502 12.8941C8.18727 12.001 7.6784 10.8586 7.6784 9.46698C7.6784 9.11389 7.70956 8.7504 7.77187 8.37654C7.85495 8.00267 7.9588 7.6288 8.08342 7.25494C8.8727 5.13636 10.3785 3.57858 12.601 2.5816C14.4495 1.77156 16.6408 1.36654 19.1748 1.36654C21.6257 1.36654 23.952 1.79233 26.1536 2.64392C27.566 1.68848 28.9473 1.21076 30.2973 1.21076C30.505 1.21076 30.6193 1.2523 30.64 1.33538C30.64 1.33538 30.5673 1.35615 30.422 1.39769C29.8404 1.50154 29.3731 1.58463 29.02 1.64694C28.6876 1.70925 28.4695 1.76118 28.3657 1.80272C28.0334 1.8858 27.701 2.01042 27.3687 2.17658C27.0572 2.34275 26.756 2.54006 26.4652 2.76854C30.5985 4.51325 32.6652 7.11993 32.6652 10.5886C32.6652 10.9209 32.6444 11.2532 32.6028 11.5856C32.5613 11.8971 32.499 12.2191 32.4159 12.5514C31.7305 15.4592 30.1623 17.6505 27.7114 19.1252C25.5513 20.413 22.8719 21.0568 19.6733 21.0568C17.7001 21.0568 16.0385 20.7972 14.6884 20.278C13.3591 20.9842 11.9259 21.3372 10.3889 21.3372ZM19.1748 20.8076C22.3942 20.8076 25.1151 19.9456 27.3376 18.2217C29.7469 16.3731 30.9516 13.8703 30.9516 10.7132H30.9828C30.9828 7.30686 29.3211 4.79365 25.9979 3.17356C24.5855 4.50286 23.2666 6.83953 22.0411 10.1836C20.2549 15.0854 17.9286 18.3775 15.0623 20.0599C16.4123 20.5584 17.7832 20.8076 19.1748 20.8076ZM10.4824 21.088C11.6663 21.088 12.7879 20.7141 13.8472 19.9664C12.0817 19.281 10.7732 18.9383 9.9216 18.9383C8.77923 18.9383 8.20804 19.3121 8.20804 20.0599C8.20804 20.7453 8.96616 21.088 10.4824 21.088ZM39.5605 23.5493C39.4774 23.5078 39.3943 23.4766 39.3113 23.4558C39.2282 23.4351 39.1347 23.4039 39.0309 23.3624C37.93 22.9885 37.1408 22.3965 36.663 21.5865C34.9599 21.3372 33.589 20.7245 32.5505 19.7483C31.4705 18.689 30.9304 17.3078 30.9304 15.6046C30.9304 13.3199 31.7612 11.3467 33.4229 9.68507C35.0637 8.04421 37.0369 7.22378 39.3424 7.22378C40.9625 7.22378 42.2399 7.64957 43.1746 8.50116C43.6315 8.14806 44.1923 7.71189 44.857 7.19263C45.5424 6.6526 46.3317 6.02949 47.2248 5.32329V4.73134C47.2248 2.0935 47.8375 0.774583 49.063 0.774583C49.3537 0.774583 49.6134 0.888819 49.8418 1.11729C50.0911 1.325 50.2157 1.57424 50.2157 1.86503C50.2157 2.69584 49.3745 3.8486 47.6921 5.32329C47.7337 5.61408 47.8271 6.06064 47.9725 6.66298C48.1179 7.24455 48.3256 7.97152 48.5956 8.84387C49.0318 10.2978 49.2499 11.5025 49.2499 12.4579C49.2499 15.1581 48.0452 17.4116 45.6358 19.2187C43.3926 20.8595 40.8898 21.68 38.1274 21.68C37.9612 21.68 37.7846 21.6696 37.5977 21.6488C37.4108 21.6488 37.2342 21.6384 37.0681 21.6176C37.4835 22.3031 38.117 22.7912 38.9686 23.082C39.1555 23.165 39.2905 23.2066 39.3736 23.2066C39.4359 23.2066 39.5605 23.1754 39.7474 23.1131C39.9136 23.0508 40.0278 23.0196 40.0902 23.0196C40.2148 23.0196 40.2771 23.082 40.2771 23.2066C40.2771 23.4351 40.0382 23.5493 39.5605 23.5493ZM47.6298 4.94943C49.1668 3.59935 49.9353 2.51929 49.9353 1.70925C49.9353 1.29384 49.6653 1.08614 49.1253 1.08614C48.1075 1.08614 47.5986 2.08312 47.5986 4.07707C47.5986 4.22246 47.5986 4.36786 47.5986 4.51325C47.5986 4.63787 47.609 4.78326 47.6298 4.94943ZM36.8188 21.1192C38.0858 21.1192 39.4463 20.7453 40.9002 19.9976C41.5441 19.6652 42.1568 19.3018 42.7384 18.9071C43.3407 18.4917 43.9015 18.0348 44.4208 17.5363C45.1893 16.8093 45.7085 16.155 45.9786 15.5735C46.9963 13.6003 47.5052 11.5648 47.5052 9.46698C47.5052 9.61238 47.4844 9.37352 47.4429 8.7504C47.4013 8.12729 47.339 7.10955 47.2559 5.69716C46.8198 6.02949 46.2797 6.45528 45.6358 6.97454C45.0127 7.47303 44.2754 8.06498 43.4238 8.7504C44.13 9.4566 44.4831 10.329 44.4831 11.3675C44.4831 12.7591 43.9846 13.943 42.9876 14.9192C41.9699 15.9162 40.7652 16.4147 39.3736 16.4147C38.5843 16.4147 37.93 16.2381 37.4108 15.885C36.8084 17.2559 36.5073 18.4502 36.5073 19.4679C36.5073 19.7795 36.5384 20.0703 36.6007 20.3403C36.663 20.6311 36.7357 20.8907 36.8188 21.1192ZM36.4761 21.1192C36.2892 20.683 36.1957 20.1741 36.1957 19.5925C36.1957 18.4502 36.5073 17.1312 37.1304 15.6358C36.6319 15.1581 36.3826 14.5765 36.3826 13.8911C36.3826 13.6418 36.445 13.351 36.5696 13.0187C36.7357 12.5825 36.9019 12.3644 37.0681 12.3644C37.1096 12.3644 37.1511 12.3852 37.1927 12.4268C37.1511 12.5514 37.0992 12.6241 37.0369 12.6448H37.0681C36.7773 13.0603 36.6319 13.4964 36.6319 13.9534C36.6319 14.4934 36.8292 14.9711 37.2238 15.3865C38.1585 13.2887 39.9655 11.139 42.6449 8.93734C41.731 8.08575 40.5783 7.65996 39.1866 7.65996C37.2342 7.65996 35.4584 8.53232 33.859 10.277C32.3013 11.9594 31.5224 13.7976 31.5224 15.7916C31.5224 17.1832 32.0001 18.3982 32.9555 19.4368C33.4333 19.956 33.9629 20.3507 34.5445 20.6207C35.126 20.9115 35.7699 21.0776 36.4761 21.1192ZM39.249 16.1966C40.3706 16.1966 41.4091 15.6877 42.3645 14.67C43.3199 13.6522 43.7977 12.5929 43.7977 11.4921C43.7977 10.6613 43.4965 9.89278 42.8942 9.18658C41.6064 10.2666 40.5159 11.3571 39.6228 12.4579C38.7297 13.538 38.0339 14.6076 37.5354 15.6669C38.0131 16.02 38.5843 16.1966 39.249 16.1966ZM51.0666 17.7232C50.9213 17.7232 50.8486 17.6505 50.8486 17.5051C50.8486 17.3805 50.994 17.1728 51.2847 16.882L54.4938 13.7353L52.4998 11.5232C52.3544 11.3571 52.1779 11.1598 51.9702 10.9313C51.7832 10.7028 51.5548 10.4224 51.2847 10.0901C51.1601 9.92393 51.0978 9.70584 51.0978 9.43583C51.0978 9.20735 51.1393 9.09312 51.2224 9.09312L51.2847 9.12427L54.2757 11.8971C54.4626 12.0425 54.6807 12.2398 54.9299 12.4891C55.2 12.7175 55.5011 12.9979 55.8334 13.3303C55.9788 13.4757 56.0515 13.7353 56.0515 14.1092C56.0515 14.4623 55.9788 14.7011 55.8334 14.8257C55.5842 15.0334 54.7742 15.5631 53.4033 16.4147C52.0117 17.287 51.2328 17.7232 51.0666 17.7232Z" fill="black"/>
</svg>
