<svg width="41" height="32" viewBox="0 0 41 32" fill="none" xmlns="http://www.w3.org/2000/svg">
<path d="M8.44329 15.9544C3.99348 15.9544 0.983398 12.8535 0.983398 8.25884C0.983398 4.12424 4.43647 0.679688 9.11346 0.679688C14.2363 0.679688 18.0216 4.81429 18.0216 11.1298C18.0216 25.4845 7.55446 31.2263 0.983398 31.9164V25.6009C5.43889 24.7972 10.4481 20.319 10.6725 15.378C10.4481 15.4916 9.55929 15.9544 8.44329 15.9544ZM31.1609 15.9544C26.7082 15.9544 23.701 12.8535 23.701 8.25884C23.701 4.12424 27.1541 0.679688 31.831 0.679688C36.9539 0.679688 40.7392 4.81429 40.7392 11.1298C40.7392 25.4845 30.2721 31.2263 23.701 31.9164V25.6009C28.1565 24.7972 33.1657 20.319 33.39 15.378C33.1657 15.4916 32.2769 15.9544 31.1609 15.9544Z" fill="black"/>
</svg>
