<svg width="41" height="32" viewBox="0 0 41 32" fill="none" xmlns="http://www.w3.org/2000/svg">
<path d="M32.8223 16.4678C37.2807 16.4678 40.2851 19.5688 40.2851 24.1634C40.2851 28.298 36.832 31.7425 32.155 31.7425C27.0322 31.7425 23.2469 27.6079 23.2469 21.2925C23.2469 6.93778 33.714 1.19591 40.2851 0.505859V6.82135C35.8296 7.62498 30.8204 12.1032 30.596 17.0443C30.8204 16.9307 31.7092 16.4678 32.8223 16.4678ZM10.1076 16.4678C14.5602 16.4678 17.5675 19.5688 17.5675 24.1634C17.5675 28.298 14.1144 31.7425 9.43743 31.7425C4.31462 31.7425 0.529297 27.6079 0.529297 21.2925C0.529297 6.93778 10.9964 1.19591 17.5675 0.505859V6.82135C13.112 7.62498 8.10277 12.1032 7.87844 17.0443C8.10277 16.9307 8.9916 16.4678 10.1076 16.4678Z" fill="black"/>
</svg>
