<svg width="171" height="157" viewBox="0 0 171 157" fill="none" xmlns="http://www.w3.org/2000/svg">
<rect x="5.34912" y="3.11279" width="7.31253" height="7.31253" fill="#FCC028"/>
<rect x="60.1934" y="3.11279" width="7.31253" height="7.31253" fill="#FCC028"/>
<rect x="115.037" y="3.11279" width="7.31253" height="7.31253" fill="#FCC028"/>
<rect x="16.3176" y="3.11279" width="7.31253" height="7.31253" fill="#FCC028"/>
<rect x="71.1621" y="3.11279" width="7.31253" height="7.31253" fill="#FCC028"/>
<rect x="126.006" y="3.11279" width="7.31253" height="7.31253" fill="#FCC028"/>
<rect x="27.2874" y="3.11279" width="7.31253" height="7.31253" fill="#FCC028"/>
<rect x="82.1309" y="3.11279" width="7.31253" height="7.31253" fill="#FCC028"/>
<rect x="136.975" y="3.11279" width="7.31253" height="7.31253" fill="#FCC028"/>
<rect x="38.2559" y="3.11279" width="7.31253" height="7.31253" fill="#FCC028"/>
<rect x="93.0999" y="3.11279" width="7.31253" height="7.31253" fill="#FCC028"/>
<rect x="147.944" y="3.11279" width="7.31253" height="7.31253" fill="#FCC028"/>
<rect x="49.2249" y="3.11279" width="7.31253" height="7.31253" fill="#FCC028"/>
<rect x="104.069" y="3.11279" width="7.31253" height="7.31253" fill="#FCC028"/>
<rect x="158.913" y="3.11279" width="7.31253" height="7.31253" fill="#FCC028"/>
<rect x="5.34912" y="12.6196" width="7.31253" height="7.31253" fill="#FCC028"/>
<rect x="60.1934" y="12.6196" width="7.31253" height="7.31253" fill="#FCC028"/>
<rect x="115.037" y="12.6196" width="7.31253" height="7.31253" fill="#FCC028"/>
<rect x="16.3176" y="12.6196" width="7.31253" height="7.31253" fill="#FCC028"/>
<rect x="71.1621" y="12.6196" width="7.31253" height="7.31253" fill="#FCC028"/>
<rect x="126.006" y="12.6196" width="7.31253" height="7.31253" fill="#FCC028"/>
<rect x="27.2874" y="12.6196" width="7.31253" height="7.31253" fill="#FCC028"/>
<rect x="82.1309" y="12.6196" width="7.31253" height="7.31253" fill="#FCC028"/>
<rect x="136.975" y="12.6196" width="7.31253" height="7.31253" fill="#FCC028"/>
<rect x="38.2559" y="12.6196" width="7.31253" height="7.31253" fill="#FCC028"/>
<rect x="93.0999" y="12.6196" width="7.31253" height="7.31253" fill="#FCC028"/>
<rect x="147.944" y="12.6196" width="7.31253" height="7.31253" fill="#FCC028"/>
<rect x="49.2249" y="12.6196" width="7.31253" height="7.31253" fill="#FCC028"/>
<rect x="104.069" y="12.6196" width="7.31253" height="7.31253" fill="#FCC028"/>
<rect x="158.913" y="12.6196" width="7.31253" height="7.31253" fill="#FCC028"/>
<rect x="5.34912" y="22.126" width="7.31253" height="7.31253" fill="#FCC028"/>
<rect x="60.1934" y="22.126" width="7.31253" height="7.31253" fill="#FCC028"/>
<rect x="115.037" y="22.126" width="7.31253" height="7.31253" fill="#FCC028"/>
<rect x="16.3176" y="22.126" width="7.31253" height="7.31253" fill="#FCC028"/>
<rect x="71.1621" y="22.126" width="7.31253" height="7.31253" fill="#FCC028"/>
<rect x="126.006" y="22.126" width="7.31253" height="7.31253" fill="#FCC028"/>
<rect x="27.2874" y="22.126" width="7.31253" height="7.31253" fill="#FCC028"/>
<rect x="82.1309" y="22.126" width="7.31253" height="7.31253" fill="#FCC028"/>
<rect x="136.975" y="22.126" width="7.31253" height="7.31253" fill="#FCC028"/>
<rect x="38.2559" y="22.126" width="7.31253" height="7.31253" fill="#FCC028"/>
<rect x="93.0999" y="22.126" width="7.31253" height="7.31253" fill="#FCC028"/>
<rect x="147.944" y="22.126" width="7.31253" height="7.31253" fill="#FCC028"/>
<rect x="49.2249" y="22.126" width="7.31253" height="7.31253" fill="#FCC028"/>
<rect x="104.069" y="22.126" width="7.31253" height="7.31253" fill="#FCC028"/>
<rect x="158.913" y="22.126" width="7.31253" height="7.31253" fill="#FCC028"/>
<rect x="5.34912" y="31.6323" width="7.31253" height="7.31253" fill="#FCC028"/>
<rect x="60.1934" y="31.6323" width="7.31253" height="7.31253" fill="#FCC028"/>
<rect x="115.037" y="31.6323" width="7.31253" height="7.31253" fill="#FCC028"/>
<rect x="16.3176" y="31.6323" width="7.31253" height="7.31253" fill="#FCC028"/>
<rect x="71.1621" y="31.6323" width="7.31253" height="7.31253" fill="#FCC028"/>
<rect x="126.006" y="31.6323" width="7.31253" height="7.31253" fill="#FCC028"/>
<rect x="27.2874" y="31.6323" width="7.31253" height="7.31253" fill="#FCC028"/>
<rect x="82.1309" y="31.6323" width="7.31253" height="7.31253" fill="#FCC028"/>
<rect x="136.975" y="31.6323" width="7.31253" height="7.31253" fill="#FCC028"/>
<rect x="38.2559" y="31.6323" width="7.31253" height="7.31253" fill="#FCC028"/>
<rect x="93.0999" y="31.6323" width="7.31253" height="7.31253" fill="#FCC028"/>
<rect x="147.944" y="31.6323" width="7.31253" height="7.31253" fill="#FCC028"/>
<rect x="49.2249" y="31.6323" width="7.31253" height="7.31253" fill="#FCC028"/>
<rect x="104.069" y="31.6323" width="7.31253" height="7.31253" fill="#FCC028"/>
<rect x="158.913" y="31.6323" width="7.31253" height="7.31253" fill="#FCC028"/>
<rect x="5.34912" y="41.1382" width="7.31253" height="7.31253" fill="#FCC028"/>
<rect x="60.1934" y="41.1382" width="7.31253" height="7.31253" fill="#FCC028"/>
<rect x="115.037" y="41.1382" width="7.31253" height="7.31253" fill="#FCC028"/>
<rect x="16.3176" y="41.1382" width="7.31253" height="7.31253" fill="#FCC028"/>
<rect x="71.1621" y="41.1382" width="7.31253" height="7.31253" fill="#FCC028"/>
<rect x="126.006" y="41.1382" width="7.31253" height="7.31253" fill="#FCC028"/>
<rect x="27.2874" y="41.1382" width="7.31253" height="7.31253" fill="#FCC028"/>
<rect x="82.1309" y="41.1382" width="7.31253" height="7.31253" fill="#FCC028"/>
<rect x="136.975" y="41.1382" width="7.31253" height="7.31253" fill="#FCC028"/>
<rect x="38.2559" y="41.1382" width="7.31253" height="7.31253" fill="#FCC028"/>
<rect x="93.0999" y="41.1382" width="7.31253" height="7.31253" fill="#FCC028"/>
<rect x="147.944" y="41.1382" width="7.31253" height="7.31253" fill="#FCC028"/>
<rect x="49.2249" y="41.1382" width="7.31253" height="7.31253" fill="#FCC028"/>
<rect x="104.069" y="41.1382" width="7.31253" height="7.31253" fill="#FCC028"/>
<rect x="158.913" y="41.1382" width="7.31253" height="7.31253" fill="#FCC028"/>
<rect x="5.34912" y="50.6445" width="7.31253" height="7.31253" fill="#FCC028"/>
<rect x="60.1934" y="50.6445" width="7.31253" height="7.31253" fill="#FCC028"/>
<rect x="115.037" y="50.6445" width="7.31253" height="7.31253" fill="#FCC028"/>
<rect x="16.3176" y="50.6445" width="7.31253" height="7.31253" fill="#FCC028"/>
<rect x="71.1621" y="50.6445" width="7.31253" height="7.31253" fill="#FCC028"/>
<rect x="126.006" y="50.6445" width="7.31253" height="7.31253" fill="#FCC028"/>
<rect x="27.2874" y="50.6445" width="7.31253" height="7.31253" fill="#FCC028"/>
<rect x="82.1309" y="50.6445" width="7.31253" height="7.31253" fill="#FCC028"/>
<rect x="136.975" y="50.6445" width="7.31253" height="7.31253" fill="#FCC028"/>
<rect x="38.2559" y="50.6445" width="7.31253" height="7.31253" fill="#FCC028"/>
<rect x="93.0999" y="50.6445" width="7.31253" height="7.31253" fill="#FCC028"/>
<rect x="147.944" y="50.6445" width="7.31253" height="7.31253" fill="#FCC028"/>
<rect x="49.2249" y="50.6445" width="7.31253" height="7.31253" fill="#FCC028"/>
<rect x="104.069" y="50.6445" width="7.31253" height="7.31253" fill="#FCC028"/>
<rect x="158.913" y="50.6445" width="7.31253" height="7.31253" fill="#FCC028"/>
<rect x="5.34912" y="60.1509" width="7.31253" height="7.31253" fill="#FCC028"/>
<rect x="60.1934" y="60.1509" width="7.31253" height="7.31253" fill="#FCC028"/>
<rect x="115.037" y="60.1509" width="7.31253" height="7.31253" fill="#FCC028"/>
<rect x="16.3176" y="60.1509" width="7.31253" height="7.31253" fill="#FCC028"/>
<rect x="71.1621" y="60.1509" width="7.31253" height="7.31253" fill="#FCC028"/>
<rect x="126.006" y="60.1509" width="7.31253" height="7.31253" fill="#FCC028"/>
<rect x="27.2874" y="60.1509" width="7.31253" height="7.31253" fill="#FCC028"/>
<rect x="82.1309" y="60.1509" width="7.31253" height="7.31253" fill="#FCC028"/>
<rect x="136.975" y="60.1509" width="7.31253" height="7.31253" fill="#FCC028"/>
<rect x="38.2559" y="60.1509" width="7.31253" height="7.31253" fill="#FCC028"/>
<rect x="93.0999" y="60.1509" width="7.31253" height="7.31253" fill="#FCC028"/>
<rect x="147.944" y="60.1509" width="7.31253" height="7.31253" fill="#FCC028"/>
<rect x="49.2249" y="60.1509" width="7.31253" height="7.31253" fill="#FCC028"/>
<rect x="104.069" y="60.1509" width="7.31253" height="7.31253" fill="#FCC028"/>
<rect x="158.913" y="60.1509" width="7.31253" height="7.31253" fill="#FCC028"/>
<rect x="5.34912" y="69.6562" width="7.31253" height="7.31253" fill="#FCC028"/>
<rect x="60.1934" y="69.6562" width="7.31253" height="7.31253" fill="#FCC028"/>
<rect x="115.037" y="69.6562" width="7.31253" height="7.31253" fill="#FCC028"/>
<rect x="16.3176" y="69.6562" width="7.31253" height="7.31253" fill="#FCC028"/>
<rect x="71.1621" y="69.6562" width="7.31253" height="7.31253" fill="#FCC028"/>
<rect x="126.006" y="69.6562" width="7.31253" height="7.31253" fill="#FCC028"/>
<rect x="27.2874" y="69.6562" width="7.31253" height="7.31253" fill="#FCC028"/>
<rect x="82.1309" y="69.6562" width="7.31253" height="7.31253" fill="#FCC028"/>
<rect x="136.975" y="69.6562" width="7.31253" height="7.31253" fill="#FCC028"/>
<rect x="38.2559" y="69.6562" width="7.31253" height="7.31253" fill="#FCC028"/>
<rect x="93.0999" y="69.6562" width="7.31253" height="7.31253" fill="#FCC028"/>
<rect x="147.944" y="69.6562" width="7.31253" height="7.31253" fill="#FCC028"/>
<rect x="49.2249" y="69.6562" width="7.31253" height="7.31253" fill="#FCC028"/>
<rect x="104.069" y="69.6562" width="7.31253" height="7.31253" fill="#FCC028"/>
<rect x="158.913" y="69.6562" width="7.31253" height="7.31253" fill="#FCC028"/>
<rect x="5.34912" y="79.1626" width="7.31253" height="7.31253" fill="#FCC028"/>
<rect x="60.1934" y="79.1626" width="7.31253" height="7.31253" fill="#FCC028"/>
<rect x="115.037" y="79.1626" width="7.31253" height="7.31253" fill="#FCC028"/>
<rect x="16.3176" y="79.1626" width="7.31253" height="7.31253" fill="#FCC028"/>
<rect x="71.1621" y="79.1626" width="7.31253" height="7.31253" fill="#FCC028"/>
<rect x="126.006" y="79.1626" width="7.31253" height="7.31253" fill="#FCC028"/>
<rect x="27.2874" y="79.1626" width="7.31253" height="7.31253" fill="#FCC028"/>
<rect x="82.1309" y="79.1626" width="7.31253" height="7.31253" fill="#FCC028"/>
<rect x="136.975" y="79.1626" width="7.31253" height="7.31253" fill="#FCC028"/>
<rect x="38.2559" y="79.1626" width="7.31253" height="7.31253" fill="#FCC028"/>
<rect x="93.0999" y="79.1626" width="7.31253" height="7.31253" fill="#FCC028"/>
<rect x="147.944" y="79.1626" width="7.31253" height="7.31253" fill="#FCC028"/>
<rect x="49.2249" y="79.1626" width="7.31253" height="7.31253" fill="#FCC028"/>
<rect x="104.069" y="79.1626" width="7.31253" height="7.31253" fill="#FCC028"/>
<rect x="158.913" y="79.1626" width="7.31253" height="7.31253" fill="#FCC028"/>
<rect x="5.34912" y="88.6689" width="7.31253" height="7.31253" fill="#FCC028"/>
<rect x="60.1934" y="88.6689" width="7.31253" height="7.31253" fill="#FCC028"/>
<rect x="115.037" y="88.6689" width="7.31253" height="7.31253" fill="#FCC028"/>
<rect x="16.3176" y="88.6689" width="7.31253" height="7.31253" fill="#FCC028"/>
<rect x="71.1621" y="88.6689" width="7.31253" height="7.31253" fill="#FCC028"/>
<rect x="126.006" y="88.6689" width="7.31253" height="7.31253" fill="#FCC028"/>
<rect x="27.2874" y="88.6689" width="7.31253" height="7.31253" fill="#FCC028"/>
<rect x="82.1309" y="88.6689" width="7.31253" height="7.31253" fill="#FCC028"/>
<rect x="136.975" y="88.6689" width="7.31253" height="7.31253" fill="#FCC028"/>
<rect x="38.2559" y="88.6689" width="7.31253" height="7.31253" fill="#FCC028"/>
<rect x="93.0999" y="88.6689" width="7.31253" height="7.31253" fill="#FCC028"/>
<rect x="147.944" y="88.6689" width="7.31253" height="7.31253" fill="#FCC028"/>
<rect x="49.2249" y="88.6689" width="7.31253" height="7.31253" fill="#FCC028"/>
<rect x="104.069" y="88.6689" width="7.31253" height="7.31253" fill="#FCC028"/>
<rect x="158.913" y="88.6689" width="7.31253" height="7.31253" fill="#FCC028"/>
<rect x="5.34912" y="98.1758" width="7.31253" height="7.31253" fill="#FCC028"/>
<rect x="60.1934" y="98.1758" width="7.31253" height="7.31253" fill="#FCC028"/>
<rect x="115.037" y="98.1758" width="7.31253" height="7.31253" fill="#FCC028"/>
<rect x="16.3176" y="98.1758" width="7.31253" height="7.31253" fill="#FCC028"/>
<rect x="71.1621" y="98.1758" width="7.31253" height="7.31253" fill="#FCC028"/>
<rect x="126.006" y="98.1758" width="7.31253" height="7.31253" fill="#FCC028"/>
<rect x="27.2874" y="98.1758" width="7.31253" height="7.31253" fill="#FCC028"/>
<rect x="82.1309" y="98.1758" width="7.31253" height="7.31253" fill="#FCC028"/>
<rect x="136.975" y="98.1758" width="7.31253" height="7.31253" fill="#FCC028"/>
<rect x="38.2559" y="98.1758" width="7.31253" height="7.31253" fill="#FCC028"/>
<rect x="93.0999" y="98.1758" width="7.31253" height="7.31253" fill="#FCC028"/>
<rect x="147.944" y="98.1758" width="7.31253" height="7.31253" fill="#FCC028"/>
<rect x="49.2249" y="98.1758" width="7.31253" height="7.31253" fill="#FCC028"/>
<rect x="104.069" y="98.1758" width="7.31253" height="7.31253" fill="#FCC028"/>
<rect x="158.913" y="98.1758" width="7.31253" height="7.31253" fill="#FCC028"/>
<rect x="5.34912" y="107.682" width="7.31253" height="7.31253" fill="#FCC028"/>
<rect x="60.1934" y="107.682" width="7.31253" height="7.31253" fill="#FCC028"/>
<rect x="115.037" y="107.682" width="7.31253" height="7.31253" fill="#FCC028"/>
<rect x="16.3176" y="107.682" width="7.31253" height="7.31253" fill="#FCC028"/>
<rect x="71.1621" y="107.682" width="7.31253" height="7.31253" fill="#FCC028"/>
<rect x="126.006" y="107.682" width="7.31253" height="7.31253" fill="#FCC028"/>
<rect x="27.2874" y="107.682" width="7.31253" height="7.31253" fill="#FCC028"/>
<rect x="82.1309" y="107.682" width="7.31253" height="7.31253" fill="#FCC028"/>
<rect x="136.975" y="107.682" width="7.31253" height="7.31253" fill="#FCC028"/>
<rect x="38.2559" y="107.682" width="7.31253" height="7.31253" fill="#FCC028"/>
<rect x="93.0999" y="107.682" width="7.31253" height="7.31253" fill="#FCC028"/>
<rect x="147.944" y="107.682" width="7.31253" height="7.31253" fill="#FCC028"/>
<rect x="49.2249" y="107.682" width="7.31253" height="7.31253" fill="#FCC028"/>
<rect x="104.069" y="107.682" width="7.31253" height="7.31253" fill="#FCC028"/>
<rect x="158.913" y="107.682" width="7.31253" height="7.31253" fill="#FCC028"/>
<rect x="5.34912" y="117.188" width="7.31253" height="7.31253" fill="#FCC028"/>
<rect x="60.1934" y="117.188" width="7.31253" height="7.31253" fill="#FCC028"/>
<rect x="115.037" y="117.188" width="7.31253" height="7.31253" fill="#FCC028"/>
<rect x="16.3176" y="117.188" width="7.31253" height="7.31253" fill="#FCC028"/>
<rect x="71.1621" y="117.188" width="7.31253" height="7.31253" fill="#FCC028"/>
<rect x="126.006" y="117.188" width="7.31253" height="7.31253" fill="#FCC028"/>
<rect x="27.2874" y="117.188" width="7.31253" height="7.31253" fill="#FCC028"/>
<rect x="82.1309" y="117.188" width="7.31253" height="7.31253" fill="#FCC028"/>
<rect x="136.975" y="117.188" width="7.31253" height="7.31253" fill="#FCC028"/>
<rect x="38.2559" y="117.188" width="7.31253" height="7.31253" fill="#FCC028"/>
<rect x="93.0999" y="117.188" width="7.31253" height="7.31253" fill="#FCC028"/>
<rect x="147.944" y="117.188" width="7.31253" height="7.31253" fill="#FCC028"/>
<rect x="49.2249" y="117.188" width="7.31253" height="7.31253" fill="#FCC028"/>
<rect x="104.069" y="117.188" width="7.31253" height="7.31253" fill="#FCC028"/>
<rect x="158.913" y="117.188" width="7.31253" height="7.31253" fill="#FCC028"/>
<rect x="5.34912" y="126.695" width="7.31253" height="7.31253" fill="#FCC028"/>
<rect x="60.1934" y="126.695" width="7.31253" height="7.31253" fill="#FCC028"/>
<rect x="115.037" y="126.695" width="7.31253" height="7.31253" fill="#FCC028"/>
<rect x="16.3176" y="126.695" width="7.31253" height="7.31253" fill="#FCC028"/>
<rect x="71.1621" y="126.695" width="7.31253" height="7.31253" fill="#FCC028"/>
<rect x="126.006" y="126.695" width="7.31253" height="7.31253" fill="#FCC028"/>
<rect x="27.2874" y="126.695" width="7.31253" height="7.31253" fill="#FCC028"/>
<rect x="82.1309" y="126.695" width="7.31253" height="7.31253" fill="#FCC028"/>
<rect x="136.975" y="126.695" width="7.31253" height="7.31253" fill="#FCC028"/>
<rect x="38.2559" y="126.695" width="7.31253" height="7.31253" fill="#FCC028"/>
<rect x="93.0999" y="126.695" width="7.31253" height="7.31253" fill="#FCC028"/>
<rect x="147.944" y="126.695" width="7.31253" height="7.31253" fill="#FCC028"/>
<rect x="49.2249" y="126.695" width="7.31253" height="7.31253" fill="#FCC028"/>
<rect x="104.069" y="126.695" width="7.31253" height="7.31253" fill="#FCC028"/>
<rect x="158.913" y="126.695" width="7.31253" height="7.31253" fill="#FCC028"/>
<rect x="5.34912" y="136.201" width="7.31253" height="7.31253" fill="#FCC028"/>
<rect x="60.1934" y="136.201" width="7.31253" height="7.31253" fill="#FCC028"/>
<rect x="115.037" y="136.201" width="7.31253" height="7.31253" fill="#FCC028"/>
<rect x="16.3176" y="136.201" width="7.31253" height="7.31253" fill="#FCC028"/>
<rect x="71.1621" y="136.201" width="7.31253" height="7.31253" fill="#FCC028"/>
<rect x="126.006" y="136.201" width="7.31253" height="7.31253" fill="#FCC028"/>
<rect x="27.2874" y="136.201" width="7.31253" height="7.31253" fill="#FCC028"/>
<rect x="82.1309" y="136.201" width="7.31253" height="7.31253" fill="#FCC028"/>
<rect x="136.975" y="136.201" width="7.31253" height="7.31253" fill="#FCC028"/>
<rect x="38.2559" y="136.201" width="7.31253" height="7.31253" fill="#FCC028"/>
<rect x="93.0999" y="136.201" width="7.31253" height="7.31253" fill="#FCC028"/>
<rect x="147.944" y="136.201" width="7.31253" height="7.31253" fill="#FCC028"/>
<rect x="49.2249" y="136.201" width="7.31253" height="7.31253" fill="#FCC028"/>
<rect x="104.069" y="136.201" width="7.31253" height="7.31253" fill="#FCC028"/>
<rect x="158.913" y="136.201" width="7.31253" height="7.31253" fill="#FCC028"/>
<rect x="5.34912" y="145.707" width="7.31253" height="7.31253" fill="#FCC028"/>
<rect x="60.1934" y="145.707" width="7.31253" height="7.31253" fill="#FCC028"/>
<rect x="115.037" y="145.707" width="7.31253" height="7.31253" fill="#FCC028"/>
<rect x="16.3176" y="145.707" width="7.31253" height="7.31253" fill="#FCC028"/>
<rect x="71.1621" y="145.707" width="7.31253" height="7.31253" fill="#FCC028"/>
<rect x="126.006" y="145.707" width="7.31253" height="7.31253" fill="#FCC028"/>
<rect x="27.2874" y="145.707" width="7.31253" height="7.31253" fill="#FCC028"/>
<rect x="82.1309" y="145.707" width="7.31253" height="7.31253" fill="#FCC028"/>
<rect x="136.975" y="145.707" width="7.31253" height="7.31253" fill="#FCC028"/>
<rect x="38.2559" y="145.707" width="7.31253" height="7.31253" fill="#FCC028"/>
<rect x="93.0999" y="145.707" width="7.31253" height="7.31253" fill="#FCC028"/>
<rect x="147.944" y="145.707" width="7.31253" height="7.31253" fill="#FCC028"/>
<rect x="49.2249" y="145.707" width="7.31253" height="7.31253" fill="#FCC028"/>
<rect x="104.069" y="145.707" width="7.31253" height="7.31253" fill="#FCC028"/>
<rect x="158.913" y="145.707" width="7.31253" height="7.31253" fill="#FCC028"/>
</svg>
